<?xml version="1.0" encoding="utf-8"?>
<svg version="1.1" id="logo" xmlns="http://www.w3.org/2000/svg" xmlns:xlink="http://www.w3.org/1999/xlink" x="0px" y="0px"
	 viewBox="0 0 230 50" style="enable-background:new 0 0 230 50;" xml:space="preserve">
<style type="text/css">
	.st0{fill-rule:evenodd;clip-rule:evenodd;fill:#74E3DC;}
	.st1{fill-rule:evenodd;clip-rule:evenodd;fill:#079992;}
	.st2{fill-rule:evenodd;clip-rule:evenodd;fill:#52C1BB;}
	.st3{fill:#74E3DC;}
</style>
<g id="icon">
	<polygon class="st0" points="50,16 40.3,19.4 46.3,25 56,21.6 	"/>
	<polygon class="st1" points="46.3,25 40.3,19.5 40.3,28.7 46.3,34.3 	"/>
	<polygon class="st2" points="56,21.6 46.3,25 46.3,34.3 56,30.9 	"/>
	<polygon class="st0" points="31.3,11.2 21.6,14.6 27.5,20.2 37.2,16.8 	"/>
	<polygon class="st1" points="27.5,20.2 21.6,14.7 21.6,29.1 27.5,34.7 	"/>
	<polygon class="st2" points="37.2,16.8 27.5,20.2 27.5,34.7 37.2,31.3 	"/>
	<path class="st0" d="M5,18.5c-0.9,0.3-1.1,1-0.6,1.5l10.6,10c0.6,0.6,0.3,1.3-0.7,1.6c-0.9,0.3-2,0.2-2.8-0.4l-10.7-10
		c-1.7-1.6-0.8-3.7,2-4.7L39.5,3.5c2.8-1,6.5-0.5,8.2,1.1l5,4.7l0.8-1.9c0.2-0.6,1.3-1,2.4-0.8l0,0c0.5,0,0.9,0.2,1.2,0.5
		c0.3,0.2,0.4,0.5,0.2,0.9L55,13.8l-10.1-1.4c-0.5,0-0.9-0.2-1.2-0.5c-0.3-0.2-0.4-0.6-0.2-0.9l0,0c0.6-0.7,1.5-1.1,2.4-0.8l3.5,0.5
		l-5.1-4.8c-0.7-0.5-1.7-0.7-2.5-0.4L5,18.5z"/>
	<path class="st0" d="M33.8,45.6c-2.8,1-6.5,0.5-8.2-1.1l-5.1-4.7l-0.8,1.9c-0.6,0.7-1.5,1.1-2.4,0.8l0,0c-0.5,0-0.9-0.2-1.2-0.5
		c-0.3-0.2-0.4-0.6-0.2-0.9l2.4-5.8l10.1,1.4c0.5,0,0.9,0.2,1.2,0.5c0.3,0.2,0.4,0.6,0.2,0.9l0,0c-0.3,0.6-1.3,1-2.4,0.8L24,38.5
		l5.2,4.8c0.7,0.5,1.7,0.7,2.5,0.4l36.7-12.9c0.9-0.3,1.1-1,0.6-1.5l-10.7-10c-0.6-0.6-0.3-1.3,0.7-1.6c0.9-0.4,2-0.2,2.8,0.4
		c0,0,7.6,7.1,10.6,10c1.7,1.6,0.8,3.7-2,4.7L33.8,45.6z"/>
</g>
<g id="nccr">
	<path class="st3" d="M82.7,10.4v8.2h-2.7v-13h2.7l5.6,8.3V5.6H91v13h-2.7L82.7,10.4z"/>
	<path class="st3" d="M93.4,12.1c-0.2-3.5,2.4-6.5,5.9-6.7c0.1,0,0.3,0,0.4,0c3.1,0,5.1,1.6,5.7,4.2l-2.7,0.6
		c-0.3-1.4-1.6-2.4-3-2.3c-1.8,0-3.4,1.6-3.4,4.1s1.6,4.1,3.4,4.1c1.6,0,2.9-1.1,3.2-2.7l2.7,0.6c-0.5,2.9-3,4.9-5.9,4.7
		C96.4,18.8,93.4,16.4,93.4,12.1z"/>
	<path class="st3" d="M107.2,12.1c-0.2-3.5,2.4-6.5,5.9-6.7c0.1,0,0.3,0,0.4,0c3.1,0,5.1,1.6,5.7,4.2l-2.7,0.6
		c-0.3-1.4-1.6-2.4-3-2.3c-1.8,0-3.4,1.6-3.4,4.1s1.6,4.1,3.4,4.1c1.6,0,2.9-1.1,3.2-2.7l2.7,0.6c-0.5,2.9-3,4.9-5.9,4.7
		C110.1,18.8,107.2,16.4,107.2,12.1z"/>
	<path class="st3" d="M125.9,13.2h-1.6v5.4h-2.8v-13h5.5c2.3,0,4.1,1.5,4.1,3.7c0,1-0.3,1.9-1,2.6c-0.4,0.4-0.9,0.7-1.4,0.9l3.3,5.8
		h-3.2L125.9,13.2z M124.3,10.8h2.5c0.8,0.1,1.4-0.5,1.5-1.2c0-0.1,0-0.1,0-0.2c0-0.8-0.7-1.4-1.4-1.4c0,0-0.1,0-0.1,0h-2.5V10.8z"
		/>
</g>
<g id="automation">
	<path class="st3" d="M91.2,38.6h-6.1L83.3,44h-4.4l6.9-19.6h4.9L97.6,44H93L91.2,38.6z M86.2,35h4l-2-6.2h-0.1L86.2,35z"/>
	<path class="st3" d="M108.4,42.3c-0.9,1.3-2.4,2-4,2c-2.8,0-4.8-1.7-4.8-5.3v-8.8h4v8c0,1.9,1,2.6,2.3,2.6c1.1-0.1,2.1-0.7,2.5-1.8
		v-8.9h4V44h-4V42.3z"/>
	<path class="st3" d="M120.9,44.2c-2.5,0-4.3-1.3-4.3-4.4v-6.3h-2v-3.3h2.1v-3.7h3.9v3.7h3.5v3.3h-3.5v6c0,1.2,0.6,1.5,1.3,1.5
		c0.5,0,1-0.2,1.3-0.6l1.4,2.6C123.5,43.8,122.2,44.2,120.9,44.2z"/>
	<path class="st3" d="M125.3,36.9c-0.2-3.8,2.8-7.1,6.7-7.2c0.2,0,0.3,0,0.5,0c3.8-0.2,7,2.8,7.2,6.6c0,0.2,0,0.4,0,0.6
		c0.2,3.9-2.8,7.2-6.7,7.3c-0.2,0-0.3,0-0.5,0c-3.8,0.1-7-2.9-7.2-6.7C125.3,37.4,125.3,37.1,125.3,36.9z M135.6,36.9
		c0-2.4-1.5-3.7-3.1-3.7c-1.6,0-3.1,1.2-3.1,3.7s1.4,3.8,3.1,3.8C134.1,40.7,135.6,39.4,135.6,36.9z"/>
	<path class="st3" d="M146.4,35.2V44h-4V30.1h4v1.6c0.9-1.2,2.4-1.9,3.9-1.9c1.6-0.1,3.1,0.7,4,2.1c1-1.4,2.7-2.1,4.4-2.1
		c3.1,0,5.2,1.8,5.2,5.4V44h-4v-8c0-1.7-0.9-2.6-2.2-2.6c-1.1,0-2.1,0.8-2.5,1.8V44h-4v-8c0-1.7-0.9-2.6-2.2-2.6
		C147.8,33.4,146.8,34.2,146.4,35.2z"/>
	<path class="st3" d="M171.4,44.3c-2.5,0.2-4.6-1.7-4.8-4.2c0-0.1,0-0.2,0-0.2c0-2.4,1.6-3.6,4.7-4.4l3.8-1c-0.1-1-1-1.6-2.3-1.6
		c-1.1-0.1-2.2,0.6-2.6,1.7l-3.5-1c0.8-2.6,3.3-3.9,6.2-3.9c3.7,0,6,1.8,6,5.1v9.2h-3.8v-1.3l-0.1,0.1
		C174.1,43.7,172.8,44.2,171.4,44.3z M172.3,41.1c0.8,0,1.5-0.3,2.1-0.8l0.8-0.5v-2.6l-2.2,0.6c-1.6,0.5-2.3,0.8-2.3,1.8
		c0,0.9,0.8,1.5,1.6,1.5C172.2,41.1,172.3,41.1,172.3,41.1z"/>
	<path class="st3" d="M187.4,44.2c-2.5,0-4.4-1.3-4.4-4.4v-6.3h-2v-3.3h2v-3.7h3.9v3.7h3.5v3.3H187v6c0,1.2,0.6,1.5,1.3,1.5
		c0.5,0,1-0.2,1.3-0.6l1.5,2.6C190,43.8,188.7,44.2,187.4,44.2z"/>
	<path class="st3" d="M192.8,26c0-1.3,1-2.3,2.3-2.4s2.3,1,2.4,2.3c0,1.3-1,2.3-2.3,2.4c0,0,0,0,0,0C193.8,28.3,192.8,27.3,192.8,26
		C192.8,26,192.8,26,192.8,26z M193.1,30.1h4V44h-4V30.1z"/>
	<path class="st3" d="M199.9,36.9c-0.1-3.8,2.8-7.1,6.7-7.2c0.2,0,0.3,0,0.5,0c3.8-0.2,7,2.8,7.2,6.6c0,0.2,0,0.4,0,0.7
		c0.2,3.9-2.8,7.2-6.7,7.3c-0.2,0-0.3,0-0.5,0c-3.8,0.1-7-2.9-7.2-6.7C199.9,37.4,199.9,37.1,199.9,36.9z M210.1,36.9
		c0-2.4-1.5-3.7-3.1-3.7c-1.6,0-3.1,1.2-3.1,3.7s1.4,3.8,3.1,3.8C208.7,40.7,210.1,39.4,210.1,36.9z"/>
	<path class="st3" d="M221,35.2V44h-4V30.1h4v1.7c0.9-1.3,2.5-2.1,4.1-2c2.9,0,4.9,1.7,4.9,5.5V44h-4V36c0-1.9-0.9-2.7-2.4-2.7
		C222.4,33.4,221.4,34.1,221,35.2z"/>
</g>
</svg>
