<?xml version="1.0" encoding="UTF-8"?>
<svg id="Layer_1" data-name="Layer 1" xmlns="http://www.w3.org/2000/svg" xmlns:xlink="http://www.w3.org/1999/xlink" viewBox="0 0 492.83 217.47" style="background-color:white;">
  <defs>
    <style>
      .cls-1, .cls-2, .cls-3 {
        fill: none;
      }

      .cls-2 {
        opacity: 0;
        stroke: #000001;
      }

      .cls-2, .cls-4, .cls-5, .cls-3 {
        stroke-miterlimit: 10;
      }

      .cls-6 {
        fill: #231f20;
      }

      .cls-4, .cls-7, .cls-8, .cls-5, .cls-9 {
        fill: #fff;
      }

      .cls-4, .cls-8, .cls-5 {
        stroke-width: 2.13px;
      }

      .cls-4, .cls-3, .cls-9 {
        stroke: #231f20;
      }

      .cls-10 {
        clip-path: url(#clippath-1);
      }

      .cls-11 {
        clip-path: url(#clippath-3);
      }

      .cls-12 {
        clip-path: url(#clippath-4);
      }

      .cls-13 {
        clip-path: url(#clippath-2);
      }

      .cls-8, .cls-5 {
        stroke: #808285;
      }

      .cls-8, .cls-9 {
        stroke-linejoin: round;
      }

      .cls-3, .cls-9 {
        stroke-width: 2.83px;
      }

      .cls-14 {
        clip-path: url(#clippath);
      }
    </style>
    <clipPath id="clippath">
      <rect class="cls-1" x="109.1" y="97.04" width="43" height="22"/>
    </clipPath>
    <clipPath id="clippath-1">
      <rect class="cls-1" x="224.36" y="97.81" width="44" height="22"/>
    </clipPath>
    <clipPath id="clippath-2">
      <rect class="cls-1" x="340.72" y="98.09" width="44" height="23"/>
    </clipPath>
    <clipPath id="clippath-3">
      <rect class="cls-1" x="272.84" y="176.4" width="33" height="22"/>
    </clipPath>
    <clipPath id="clippath-4">
      <rect class="cls-1" x="389.97" y="176.4" width="34" height="22"/>
    </clipPath>
  </defs>
  <rect class="cls-9" x="90.7" y="55.47" width="79.81" height="105.14"/>
  <polygon class="cls-2" points="130.55 108.81 130.55 108.81 130.55 108.81 130.55 108.81 130.55 108.81 130.55 108.81 130.55 108.81 130.55 108.81 130.55 108.81 130.55 108.81 130.55 108.81 130.55 108.81 130.55 108.81 130.55 108.81 130.55 108.81 130.55 108.81 130.55 108.81 130.55 108.81 130.55 108.81 130.55 108.81 130.55 108.81 130.55 108.81 130.55 108.81 130.55 108.81 130.55 108.81 130.55 108.81 130.55 108.81 130.55 108.81 130.55 108.81 130.55 108.81 130.55 108.81 130.55 108.81 130.55 108.81 130.55 108.81 130.55 108.81 130.55 108.81 130.55 108.81 130.55 108.81 130.55 108.81 130.55 108.81 130.55 108.81 130.55 108.81 130.55 108.81 130.55 108.81 130.55 108.81 130.55 108.81 130.55 108.81 130.55 108.81 130.55 108.81 130.55 108.81 130.55 108.81 130.55 108.81 130.55 108.81 130.55 108.81 130.55 108.81 130.55 108.81 130.55 108.81 130.55 108.81 130.55 108.81 130.55 108.81 130.55 108.81 130.55 108.81 130.55 108.81 130.55 108.81 130.55 108.81 130.55 108.81 130.55 108.81 130.55 108.81 130.55 108.81 130.55 108.81 130.55 108.81 130.55 108.81 130.55 108.81 130.55 108.81 130.55 108.81 130.55 108.81 130.55 108.81 130.55 108.81 130.55 108.81 130.55 108.81 130.55 108.81 130.55 108.81 130.55 108.81 130.55 108.81 130.55 108.81 130.55 108.81 130.55 108.81 130.55 108.81 130.55 108.81 130.55 108.81 130.55 108.81 130.55 108.81 130.55 108.81 130.55 108.81 130.55 108.81 130.55 108.81 130.55 108.81 130.55 108.81 130.55 108.81 130.55 108.81 130.55 108.81 130.55 108.81 130.55 108.81 130.55 108.81 130.55 108.81 130.55 108.81 130.55 108.81 130.55 108.81 130.55 108.81 130.55 108.81 130.55 108.81 130.55 108.81 130.55 108.81 130.55 108.81 130.55 108.81 130.55 108.81 130.55 108.81 130.55 108.81 130.55 108.81 130.55 108.81 130.55 108.81 130.55 108.81 130.55 108.81 130.55 108.81 130.55 108.81 130.55 108.81 130.55 108.81 130.55 108.81 130.55 108.81 130.55 108.81 130.55 108.81 130.55 108.81 130.55 108.81"/>
  <g class="cls-14">
    <path d="M111.26,110.72c-.11.54-.32,1.36-.32,1.54,0,.65.5.97,1.04.97.43,0,1.08-.29,1.33-1.01.04-.07.47-1.76.68-2.66l.79-3.23c.22-.79.43-1.58.61-2.41.14-.61.43-1.65.47-1.8.54-1.11,2.44-4.38,5.85-4.38,1.62,0,1.94,1.33,1.94,2.51,0,.9-.25,1.9-.54,2.98l-1.01,4.17-.72,2.73c-.14.72-.47,1.94-.47,2.12,0,.65.5.97,1.04.97,1.11,0,1.33-.9,1.62-2.05.5-2.01,1.83-7.25,2.15-8.66.11-.47,2.01-4.78,5.92-4.78,1.55,0,1.94,1.22,1.94,2.51,0,2.05-1.51,6.14-2.23,8.05-.32.86-.47,1.26-.47,1.97,0,1.69,1.26,2.95,2.94,2.95,3.38,0,4.7-5.24,4.7-5.53,0-.36-.32-.36-.43-.36-.36,0-.36.11-.54.65-.54,1.9-1.69,4.45-3.66,4.45-.61,0-.86-.36-.86-1.18,0-.9.32-1.76.65-2.55.68-1.87,2.19-5.85,2.19-7.9,0-2.33-1.44-3.84-4.13-3.84s-4.53,1.58-5.85,3.48c-.04-.47-.14-1.69-1.15-2.55-.9-.75-2.05-.93-2.95-.93-3.23,0-4.99,2.3-5.6,3.12-.18-2.05-1.69-3.12-3.3-3.12s-2.33,1.4-2.66,2.05c-.65,1.26-1.11,3.38-1.11,3.48,0,.36.36.36.43.36.36,0,.4-.04.61-.83.61-2.55,1.33-4.27,2.62-4.27.58,0,1.11.29,1.11,1.65,0,.75-.11,1.15-.57,3.02l-2.08,8.3"/>
    <path d="M148,102.3c0-.68-.05-.7-.75-.7-1.6,1.58-3.88,1.6-4.91,1.6v.9c.6,0,2.26,0,3.63-.7v12.78c0,.83,0,1.15-2.51,1.15h-.95v.9c.45-.02,3.53-.1,4.46-.1.78,0,3.93.08,4.49.1v-.9h-.95c-2.51,0-2.51-.33-2.51-1.15v-13.89"/>
  </g>
  <rect class="cls-9" x="206.51" y="55.47" width="79.81" height="105.14"/>
  <polygon class="cls-2" points="246.36 108.81 246.36 108.81 246.36 108.81 246.36 108.81 246.36 108.81 246.36 108.81 246.36 108.81 246.36 108.81 246.36 108.81 246.36 108.81 246.36 108.81 246.36 108.81 246.36 108.81 246.36 108.81 246.36 108.81 246.36 108.81 246.36 108.81 246.36 108.81 246.36 108.81 246.36 108.81 246.36 108.81 246.36 108.81 246.36 108.81 246.36 108.81 246.36 108.81 246.36 108.81 246.36 108.81 246.36 108.81 246.36 108.81 246.36 108.81 246.36 108.81 246.36 108.81 246.36 108.81 246.36 108.81 246.36 108.81 246.36 108.81 246.36 108.81 246.36 108.81 246.36 108.81 246.36 108.81 246.36 108.81 246.36 108.81 246.36 108.81 246.36 108.81 246.36 108.81 246.36 108.81 246.36 108.81 246.36 108.81 246.36 108.81 246.36 108.81 246.36 108.81 246.36 108.81 246.36 108.81 246.36 108.81 246.36 108.81 246.36 108.81 246.36 108.81 246.36 108.81 246.36 108.81 246.36 108.81 246.36 108.81 246.36 108.81 246.36 108.81 246.36 108.81 246.36 108.81 246.36 108.81 246.36 108.81 246.36 108.81 246.36 108.81 246.36 108.81 246.36 108.81 246.36 108.81 246.36 108.81 246.36 108.81 246.36 108.81 246.36 108.81 246.36 108.81 246.36 108.81 246.36 108.81 246.36 108.81 246.36 108.81 246.36 108.81 246.36 108.81 246.36 108.81 246.36 108.81 246.36 108.81 246.36 108.81 246.36 108.81 246.36 108.81 246.36 108.81 246.36 108.81 246.36 108.81 246.36 108.81 246.36 108.81 246.36 108.81 246.36 108.81 246.36 108.81 246.36 108.81 246.36 108.81 246.36 108.81 246.36 108.81 246.36 108.81 246.36 108.81 246.36 108.81 246.36 108.81 246.36 108.81 246.36 108.81 246.36 108.81 246.36 108.81 246.36 108.81 246.36 108.81 246.36 108.81 246.36 108.81 246.36 108.81 246.36 108.81 246.36 108.81 246.36 108.81 246.36 108.81 246.36 108.81 246.36 108.81 246.36 108.81 246.36 108.81 246.36 108.81 246.36 108.81 246.36 108.81 246.36 108.81 246.36 108.81 246.36 108.81 246.36 108.81 246.36 108.81 246.36 108.81 246.36 108.81 246.36 108.81"/>
  <polygon class="cls-2" points="246.3 109.59 246.31 109.59 246.31 109.59 246.31 109.59 246.3 109.59 246.3 109.59 246.31 109.59 246.3 109.59 246.31 109.59 246.3 109.59 246.31 109.59 246.31 109.59 246.3 109.59 246.3 109.59 246.3 109.59 246.3 109.59 246.3 109.59 246.31 109.59 246.3 109.59 246.31 109.59 246.3 109.59 246.3 109.59 246.3 109.59 246.3 109.59 246.31 109.59 246.3 109.59 246.31 109.59 246.31 109.59 246.31 109.59 246.31 109.59 246.31 109.59 246.3 109.59 246.31 109.59 246.3 109.59 246.31 109.59 246.31 109.59 246.31 109.59 246.3 109.59 246.31 109.59 246.31 109.59 246.3 109.59 246.31 109.59 246.3 109.59 246.3 109.59 246.31 109.59 246.31 109.59 246.3 109.59 246.31 109.59 246.3 109.59 246.3 109.59 246.31 109.59 246.3 109.59 246.31 109.59 246.3 109.59 246.31 109.59 246.3 109.59 246.3 109.59 246.3 109.59 246.31 109.59 246.31 109.59 246.3 109.59 246.31 109.59 246.3 109.59 246.31 109.59 246.3 109.59 246.31 109.59 246.31 109.59 246.31 109.59 246.3 109.59 246.31 109.59 246.3 109.59 246.3 109.59 246.3 109.59 246.31 109.59 246.3 109.59 246.31 109.59 246.3 109.59 246.3 109.59 246.31 109.59 246.31 109.59 246.3 109.59 246.31 109.59 246.31 109.59 246.3 109.59 246.31 109.59 246.3 109.59 246.31 109.59 246.3 109.59 246.3 109.59 246.3 109.59 246.3 109.59 246.3 109.59 246.31 109.59 246.3 109.59 246.3 109.59 246.3 109.59 246.3 109.59 246.3 109.59 246.31 109.59 246.31 109.59 246.3 109.59 246.3 109.59 246.3 109.59 246.31 109.59 246.3 109.59 246.31 109.59 246.3 109.59 246.31 109.59 246.31 109.59 246.3 109.59 246.3 109.59 246.31 109.59 246.3 109.59 246.31 109.59 246.3 109.59 246.3 109.59 246.3 109.59 246.31 109.59 246.3 109.59 246.3 109.59 246.3 109.59 246.31 109.59 246.31 109.59 246.31 109.59 246.3 109.59 246.3 109.59 246.3 109.59 246.3 109.59 246.3 109.59 246.3 109.59 246.3 109.59 246.31 109.59 246.3 109.59"/>
  <g class="cls-10">
    <path d="M226.52,111.49c-.11.54-.32,1.36-.32,1.54,0,.65.5.97,1.04.97.43,0,1.08-.29,1.33-1.01.04-.07.47-1.76.68-2.66l.79-3.23c.22-.79.43-1.58.61-2.41.14-.61.43-1.65.47-1.8.54-1.11,2.44-4.38,5.85-4.38,1.62,0,1.94,1.33,1.94,2.51,0,.9-.25,1.9-.54,2.98l-1.01,4.17-.72,2.73c-.14.72-.47,1.94-.47,2.12,0,.65.5.97,1.04.97,1.11,0,1.33-.9,1.62-2.05.5-2.01,1.83-7.25,2.15-8.66.11-.47,2.01-4.78,5.92-4.78,1.55,0,1.94,1.22,1.94,2.51,0,2.05-1.51,6.14-2.23,8.05-.32.86-.47,1.26-.47,1.97,0,1.69,1.26,2.95,2.94,2.95,3.38,0,4.7-5.24,4.7-5.53,0-.36-.32-.36-.43-.36-.36,0-.36.11-.54.65-.54,1.9-1.69,4.45-3.66,4.45-.61,0-.86-.36-.86-1.18,0-.9.32-1.76.65-2.55.68-1.87,2.19-5.85,2.19-7.9,0-2.33-1.44-3.84-4.13-3.84s-4.53,1.58-5.85,3.48c-.04-.47-.14-1.69-1.15-2.55-.9-.75-2.05-.93-2.95-.93-3.23,0-4.99,2.3-5.6,3.12-.18-2.05-1.69-3.12-3.3-3.12s-2.33,1.4-2.66,2.05c-.65,1.26-1.11,3.38-1.11,3.48,0,.36.36.36.43.36.36,0,.4-.04.61-.83.61-2.55,1.33-4.27,2.62-4.27.58,0,1.11.29,1.11,1.65,0,.75-.11,1.15-.57,3.02l-2.08,8.3"/>
    <path d="M267.52,114.45h-.85c-.08.55-.33,2.03-.65,2.28-.2.15-2.13.15-2.48.15h-4.61c2.63-2.33,3.51-3.03,5.01-4.21,1.85-1.48,3.58-3.03,3.58-5.41,0-3.03-2.66-4.89-5.87-4.89s-5.21,2.18-5.21,4.49c0,1.28,1.08,1.4,1.33,1.4.6,0,1.33-.43,1.33-1.33,0-.45-.18-1.33-1.48-1.33.78-1.78,2.48-2.33,3.66-2.33,2.51,0,3.81,1.96,3.81,3.99,0,2.18-1.55,3.91-2.36,4.81l-6.04,5.96c-.25.23-.25.28-.25.98h10.32l.75-4.56"/>
  </g>
  <rect class="cls-9" x="322.32" y="55.47" width="79.81" height="105.14"/>
  <polygon class="cls-2" points="362.17 108.81 362.17 108.81 362.17 108.81 362.17 108.81 362.17 108.81 362.17 108.81 362.17 108.81 362.17 108.81 362.17 108.81 362.17 108.81 362.17 108.81 362.17 108.81 362.17 108.81 362.17 108.81 362.17 108.81 362.17 108.81 362.17 108.81 362.17 108.81 362.17 108.81 362.17 108.81 362.17 108.81 362.17 108.81 362.17 108.81 362.17 108.81 362.17 108.81 362.17 108.81 362.17 108.81 362.17 108.81 362.17 108.81 362.17 108.81 362.17 108.81 362.17 108.81 362.17 108.81 362.17 108.81 362.17 108.81 362.17 108.81 362.17 108.81 362.17 108.81 362.17 108.81 362.17 108.81 362.17 108.81 362.17 108.81 362.17 108.81 362.17 108.81 362.17 108.81 362.17 108.81 362.17 108.81 362.17 108.81 362.17 108.81 362.17 108.81 362.17 108.81 362.17 108.81 362.17 108.81 362.17 108.81 362.17 108.81 362.17 108.81 362.17 108.81 362.17 108.81 362.17 108.81 362.17 108.81 362.17 108.81 362.17 108.81 362.17 108.81 362.17 108.81 362.17 108.81 362.17 108.81 362.17 108.81 362.17 108.81 362.17 108.81 362.17 108.81 362.17 108.81 362.17 108.81 362.17 108.81 362.17 108.81 362.17 108.81 362.17 108.81 362.17 108.81 362.17 108.81 362.17 108.81 362.17 108.81 362.17 108.81 362.17 108.81 362.17 108.81 362.17 108.81 362.17 108.81 362.17 108.81 362.17 108.81 362.17 108.81 362.17 108.81 362.17 108.81 362.17 108.81 362.17 108.81 362.17 108.81 362.17 108.81 362.17 108.81 362.17 108.81 362.17 108.81 362.17 108.81 362.17 108.81 362.17 108.81 362.17 108.81 362.17 108.81 362.17 108.81 362.17 108.81 362.17 108.81 362.17 108.81 362.17 108.81 362.17 108.81 362.17 108.81 362.17 108.81 362.17 108.81 362.17 108.81 362.17 108.81 362.17 108.81 362.17 108.81 362.17 108.81 362.17 108.81 362.17 108.81 362.17 108.81 362.17 108.81 362.17 108.81 362.17 108.81 362.17 108.81 362.17 108.81 362.17 108.81 362.17 108.81 362.17 108.81 362.17 108.81 362.17 108.81 362.17 108.81 362.17 108.81 362.17 108.81 362.17 108.81"/>
  <polygon class="cls-2" points="362.11 109.59 362.11 109.59 362.11 109.59 362.11 109.59 362.11 109.59 362.11 109.59 362.11 109.59 362.11 109.59 362.11 109.59 362.11 109.59 362.11 109.59 362.11 109.59 362.11 109.59 362.11 109.59 362.11 109.59 362.11 109.59 362.11 109.59 362.11 109.59 362.11 109.59 362.11 109.59 362.11 109.59 362.11 109.59 362.11 109.59 362.11 109.59 362.11 109.59 362.11 109.59 362.11 109.59 362.11 109.59 362.11 109.59 362.11 109.59 362.11 109.59 362.11 109.59 362.11 109.59 362.11 109.59 362.11 109.59 362.11 109.59 362.11 109.59 362.11 109.59 362.11 109.59 362.11 109.59 362.11 109.59 362.11 109.59 362.11 109.59 362.11 109.59 362.11 109.59 362.11 109.59 362.11 109.59 362.11 109.59 362.11 109.59 362.11 109.59 362.11 109.59 362.11 109.59 362.11 109.59 362.11 109.59 362.11 109.59 362.11 109.59 362.11 109.59 362.11 109.59 362.11 109.59 362.11 109.59 362.11 109.59 362.11 109.59 362.11 109.59 362.11 109.59 362.11 109.59 362.11 109.59 362.11 109.59 362.11 109.59 362.11 109.59 362.11 109.59 362.11 109.59 362.11 109.59 362.11 109.59 362.11 109.59 362.11 109.59 362.11 109.59 362.11 109.59 362.11 109.59 362.11 109.59 362.11 109.59 362.11 109.59 362.11 109.59 362.11 109.59 362.11 109.59 362.11 109.59 362.11 109.59 362.11 109.59 362.11 109.59 362.11 109.59 362.11 109.59 362.11 109.59 362.11 109.59 362.11 109.59 362.11 109.59 362.11 109.59 362.11 109.59 362.11 109.59 362.11 109.59 362.11 109.59 362.11 109.59 362.11 109.59 362.11 109.59 362.11 109.59 362.11 109.59 362.11 109.59 362.11 109.59 362.11 109.59 362.11 109.59 362.11 109.59 362.11 109.59 362.11 109.59 362.11 109.59 362.11 109.59 362.11 109.59 362.11 109.59 362.11 109.59 362.11 109.59 362.11 109.59 362.11 109.59 362.11 109.59 362.11 109.59 362.11 109.59 362.11 109.59 362.11 109.59 362.11 109.59 362.11 109.59 362.11 109.59 362.11 109.59 362.11 109.59 362.11 109.59 362.11 109.59 362.11 109.59 362.11 109.59"/>
  <polygon class="cls-2" points="362.67 110.25 362.67 110.25 362.67 110.25 362.67 110.25 362.67 110.25 362.67 110.25 362.67 110.25 362.67 110.25 362.67 110.25 362.67 110.25 362.67 110.25 362.67 110.25 362.67 110.25 362.67 110.25 362.67 110.25 362.67 110.25 362.67 110.25 362.67 110.25 362.67 110.25 362.67 110.25 362.67 110.25 362.67 110.25 362.67 110.25 362.67 110.25 362.67 110.25 362.67 110.25 362.67 110.25 362.67 110.25 362.67 110.25 362.67 110.25 362.67 110.25 362.67 110.25 362.67 110.25 362.67 110.25 362.67 110.25 362.67 110.25 362.67 110.25 362.67 110.25 362.67 110.25 362.67 110.25 362.67 110.25 362.67 110.25 362.67 110.25 362.67 110.25 362.67 110.25 362.67 110.25 362.67 110.25 362.67 110.25 362.67 110.25 362.67 110.25 362.67 110.25 362.67 110.25 362.67 110.25 362.67 110.25 362.67 110.25 362.67 110.25 362.67 110.25 362.67 110.25 362.67 110.25 362.67 110.25 362.67 110.25 362.67 110.25 362.67 110.25 362.67 110.25 362.67 110.25 362.67 110.25 362.67 110.25 362.67 110.25 362.67 110.25 362.67 110.25 362.67 110.25 362.67 110.25 362.67 110.25 362.67 110.25 362.67 110.25 362.67 110.25 362.67 110.25 362.67 110.25 362.67 110.25 362.67 110.25 362.67 110.25 362.67 110.25 362.67 110.25 362.67 110.25 362.67 110.25 362.67 110.25 362.67 110.25 362.67 110.25 362.67 110.25 362.67 110.25 362.67 110.25 362.67 110.25 362.67 110.25 362.67 110.25 362.67 110.25 362.67 110.25 362.67 110.25 362.67 110.25 362.67 110.25 362.67 110.25 362.67 110.25 362.67 110.25 362.67 110.25 362.67 110.25 362.67 110.25 362.67 110.25 362.67 110.25 362.67 110.25 362.67 110.25 362.67 110.25 362.67 110.25 362.67 110.25 362.67 110.25 362.67 110.25 362.67 110.25 362.67 110.25 362.67 110.25 362.67 110.25 362.67 110.25 362.67 110.25 362.67 110.25 362.67 110.25 362.67 110.25 362.67 110.25 362.67 110.25 362.67 110.25 362.67 110.25 362.67 110.25 362.67 110.25 362.67 110.25 362.67 110.25 362.67 110.25 362.67 110.25"/>
  <g class="cls-13">
    <path d="M342.88,112.37c-.11.54-.32,1.36-.32,1.54,0,.65.5.97,1.04.97.43,0,1.08-.29,1.33-1.01.04-.07.47-1.76.68-2.66l.79-3.23c.22-.79.43-1.58.61-2.41.14-.61.43-1.65.47-1.8.54-1.11,2.44-4.38,5.85-4.38,1.62,0,1.94,1.33,1.94,2.51,0,.9-.25,1.9-.54,2.98l-1.01,4.17-.72,2.73c-.14.72-.47,1.94-.47,2.12,0,.65.5.97,1.04.97,1.11,0,1.33-.9,1.62-2.05.5-2.01,1.83-7.25,2.15-8.66.11-.47,2.01-4.78,5.93-4.78,1.55,0,1.94,1.22,1.94,2.51,0,2.05-1.51,6.14-2.23,8.05-.32.86-.47,1.26-.47,1.98,0,1.69,1.26,2.95,2.94,2.95,3.38,0,4.7-5.24,4.7-5.53,0-.36-.32-.36-.43-.36-.36,0-.36.11-.54.65-.54,1.9-1.69,4.45-3.66,4.45-.61,0-.86-.36-.86-1.18,0-.9.32-1.76.65-2.55.68-1.87,2.19-5.85,2.19-7.9,0-2.33-1.44-3.84-4.13-3.84s-4.52,1.58-5.85,3.48c-.04-.47-.14-1.69-1.15-2.55-.9-.75-2.05-.93-2.95-.93-3.23,0-4.99,2.3-5.6,3.12-.18-2.05-1.69-3.12-3.3-3.12s-2.33,1.4-2.66,2.05c-.65,1.26-1.11,3.38-1.11,3.48,0,.36.36.36.43.36.36,0,.4-.04.61-.83.61-2.55,1.33-4.27,2.62-4.27.58,0,1.11.29,1.11,1.65,0,.75-.11,1.15-.57,3.02l-2.08,8.3"/>
    <path d="M378.06,111.51c1.95,0,3.36,1.35,3.36,4.04,0,3.11-1.8,4.04-3.26,4.04-1,0-3.21-.28-4.26-1.75,1.18-.05,1.45-.88,1.45-1.4,0-.8-.6-1.38-1.38-1.38-.7,0-1.4.43-1.4,1.45,0,2.35,2.61,3.88,5.64,3.88,3.48,0,5.89-2.33,5.89-4.84,0-1.95-1.6-3.91-4.36-4.49,2.63-.95,3.58-2.83,3.58-4.36,0-1.98-2.28-3.46-5.06-3.46s-4.91,1.35-4.91,3.36c0,.85.55,1.33,1.3,1.33s1.28-.58,1.28-1.28-.5-1.25-1.28-1.3c.88-1.1,2.61-1.38,3.53-1.38,1.13,0,2.71.55,2.71,2.73,0,1.05-.35,2.2-1,2.98-.83.95-1.53,1-2.78,1.08-.63.05-.68.05-.8.07-.05,0-.25.05-.25.33,0,.35.22.35.65.35h1.35"/>
  </g>
  <polyline class="cls-4" points="170.51 108.04 177.05 108.04 180.33 103.54 183.6 112.54 186.87 103.54 190.14 112.54 193.42 103.54 196.69 112.54 199.96 108.04 206.51 108.04"/>
  <polyline class="cls-4" points="286.32 108.04 292.86 108.04 296.14 103.54 299.41 112.54 302.68 103.54 305.95 112.54 309.23 103.54 312.5 112.54 315.77 108.04 322.32 108.04"/>
  <polyline class="cls-4" points="54.7 108.04 61.24 108.04 64.52 103.54 67.79 112.54 71.06 103.54 74.33 112.54 77.61 103.54 80.88 112.54 84.15 108.04 90.7 108.04"/>
  <polyline class="cls-4" points="402.13 108.04 408.67 108.04 411.95 103.54 415.22 112.54 418.49 103.54 421.76 112.54 425.04 103.54 428.31 112.54 431.58 108.04 438.13 108.04"/>
  <rect class="cls-8" x="33.42" y="28.67" width="21.28" height="158.73"/>
  <rect class="cls-8" x="438.13" y="28.67" width="21.28" height="158.73"/>
  <line class="cls-5" x1="33.42" y1="62.37" x2="54.7" y2="39.53"/>
  <line class="cls-5" x1="33.42" y1="85.2" x2="54.7" y2="62.37"/>
  <line class="cls-5" x1="33.42" y1="108.04" x2="54.7" y2="85.2"/>
  <line class="cls-5" x1="33.42" y1="130.87" x2="54.7" y2="108.04"/>
  <line class="cls-5" x1="33.42" y1="153.71" x2="54.7" y2="130.87"/>
  <line class="cls-5" x1="33.42" y1="176.54" x2="54.7" y2="153.71"/>
  <line class="cls-5" x1="438.13" y1="62.37" x2="459.41" y2="39.53"/>
  <line class="cls-5" x1="438.13" y1="85.2" x2="459.41" y2="62.37"/>
  <line class="cls-5" x1="438.13" y1="108.04" x2="459.41" y2="85.2"/>
  <line class="cls-5" x1="438.13" y1="130.87" x2="459.41" y2="108.04"/>
  <line class="cls-5" x1="438.13" y1="153.71" x2="459.41" y2="130.87"/>
  <line class="cls-5" x1="438.13" y1="176.54" x2="459.41" y2="153.71"/>
  <polygon class="cls-2" points="272.84 204.51 272.84 204.51 272.84 204.51 272.84 204.51 272.84 204.51 272.84 204.51 272.84 204.51 272.84 204.51 272.84 204.51 272.84 204.51 272.84 204.51 272.84 204.51 272.84 204.51 272.84 204.51 272.84 204.51 272.84 204.51 272.84 204.51 272.84 204.51 272.84 204.51 272.84 204.51 272.84 204.51 272.84 204.51 272.84 204.51 272.84 204.51 272.84 204.51 272.84 204.51 272.84 204.51 272.84 204.51 272.84 204.51 272.84 204.51 272.84 204.51 272.84 204.51 272.84 204.51 272.84 204.51 272.84 204.51 272.84 204.51 272.84 204.51 272.84 204.51 272.84 204.51 272.84 204.51 272.84 204.51 272.84 204.51 272.84 204.51 272.84 204.51 272.84 204.51 272.84 204.51 272.84 204.51 272.84 204.51 272.84 204.51 272.84 204.51 272.84 204.51 272.84 204.51 272.84 204.51 272.84 204.51 272.84 204.51 272.84 204.51 272.84 204.51 272.84 204.51 272.84 204.51 272.84 204.51 272.84 204.51 272.84 204.51 272.84 204.51 272.84 204.51 272.84 204.51 272.84 204.51 272.84 204.51 272.84 204.51 272.84 204.51 272.84 204.51 272.84 204.51 272.84 204.51 272.84 204.51 272.84 204.51 272.84 204.51 272.84 204.51 272.84 204.51 272.84 204.51 272.84 204.51 272.84 204.51 272.84 204.51 272.84 204.51 272.84 204.51 272.84 204.51 272.84 204.51 272.84 204.51 272.84 204.51 272.84 204.51 272.84 204.51 272.84 204.51 272.84 204.51 272.84 204.51 272.84 204.51 272.84 204.51 272.84 204.51 272.84 204.51 272.84 204.51 272.84 204.51 272.84 204.51 272.84 204.51 272.84 204.51 272.84 204.51 272.84 204.51 272.84 204.51 272.84 204.51 272.84 204.51 272.84 204.51 272.84 204.51 272.84 204.51 272.84 204.51 272.84 204.51 272.84 204.51 272.84 204.51 272.84 204.51 272.84 204.51 272.84 204.51 272.84 204.51 272.84 204.51 272.84 204.51 272.84 204.51 272.84 204.51 272.84 204.51 272.84 204.51 272.84 204.51 272.84 204.51 272.84 204.51 272.84 204.51 272.84 204.51 272.84 204.51 272.84 204.51 272.84 204.51 272.84 204.51 272.84 204.51"/>
  <g class="cls-11">
    <path d="M285.31,190.19c.4,1.47,1.65,2.41,3.2,2.41,1.26,0,2.08-.83,2.66-1.97.61-1.29,1.08-3.48,1.08-3.56,0-.36-.32-.36-.43-.36-.36,0-.4.14-.5.65-.5,2.01-1.18,4.45-2.69,4.45-.75,0-1.11-.47-1.11-1.65,0-.79.43-2.48.72-3.74l1-3.88c.11-.54.47-1.9.61-2.44.18-.83.54-2.19.54-2.41,0-.65-.5-.97-1.04-.97-.18,0-1.11.04-1.4,1.26-.68,2.62-2.26,8.91-2.69,10.81-.04.14-1.47,3.02-4.09,3.02-1.87,0-2.23-1.62-2.23-2.95,0-2.01,1.01-4.85,1.94-7.33.43-1.08.61-1.58.61-2.26,0-1.62-1.15-2.94-2.94-2.94-3.41,0-4.74,5.21-4.74,5.53,0,.36.36.36.43.36.36,0,.4-.07.58-.65.9-3.12,2.26-4.45,3.63-4.45.32,0,.9.04.9,1.19,0,.86-.4,1.9-.61,2.44-1.33,3.55-2.08,5.78-2.08,7.54,0,3.41,2.48,4.31,4.42,4.31,2.37,0,3.66-1.62,4.27-2.41"/>
    <path d="M301.63,181.66c0-.68-.05-.7-.75-.7-1.6,1.58-3.88,1.6-4.91,1.6v.9c.6,0,2.26,0,3.63-.7v12.78c0,.83,0,1.15-2.51,1.15h-.95v.9c.45-.02,3.53-.1,4.46-.1.78,0,3.93.08,4.49.1v-.9h-.95c-2.51,0-2.51-.33-2.51-1.15v-13.89"/>
  </g>
  <g class="cls-12">
    <path d="M402.44,190.19c.4,1.47,1.65,2.41,3.2,2.41,1.26,0,2.08-.83,2.66-1.97.61-1.29,1.08-3.48,1.08-3.56,0-.36-.32-.36-.43-.36-.36,0-.4.14-.5.65-.5,2.01-1.18,4.45-2.69,4.45-.75,0-1.11-.47-1.11-1.65,0-.79.43-2.48.72-3.74l1-3.88c.11-.54.47-1.9.61-2.44.18-.83.54-2.19.54-2.41,0-.65-.5-.97-1.04-.97-.18,0-1.11.04-1.4,1.26-.68,2.62-2.26,8.91-2.69,10.81-.04.14-1.47,3.02-4.09,3.02-1.87,0-2.23-1.62-2.23-2.95,0-2.01,1.01-4.85,1.94-7.33.43-1.08.61-1.58.61-2.26,0-1.62-1.15-2.94-2.94-2.94-3.41,0-4.74,5.21-4.74,5.53,0,.36.36.36.43.36.36,0,.4-.07.58-.65.9-3.12,2.26-4.45,3.63-4.45.32,0,.9.04.9,1.19,0,.86-.4,1.9-.61,2.44-1.33,3.55-2.08,5.78-2.08,7.54,0,3.41,2.48,4.31,4.42,4.31,2.37,0,3.66-1.62,4.27-2.41"/>
    <path d="M423.03,193.04h-.85c-.08.55-.33,2.03-.65,2.28-.2.15-2.13.15-2.48.15h-4.61c2.63-2.33,3.51-3.03,5.01-4.21,1.85-1.48,3.58-3.03,3.58-5.41,0-3.03-2.66-4.89-5.87-4.89s-5.21,2.18-5.21,4.49c0,1.28,1.08,1.4,1.33,1.4.6,0,1.33-.43,1.33-1.33,0-.45-.17-1.33-1.48-1.33.78-1.78,2.48-2.33,3.66-2.33,2.51,0,3.81,1.96,3.81,3.99,0,2.18-1.55,3.91-2.36,4.81l-6.04,5.96c-.25.23-.25.28-.25.98h10.32l.75-4.56"/>
  </g>
  <g>
    <polyline class="cls-7" points="246.41 160.61 246.3 187.4 268.36 187.4"/>
    <g>
      <polyline class="cls-3" points="246.41 160.61 246.3 187.4 258.35 187.4"/>
      <polygon class="cls-6" points="268.36 187.4 254.26 193.17 257.6 187.4 254.26 181.64 268.36 187.4"/>
    </g>
  </g>
  <g>
    <polyline class="cls-7" points="362.83 160.61 362.72 187.4 384.78 187.4"/>
    <g>
      <polyline class="cls-3" points="362.83 160.61 362.72 187.4 374.77 187.4"/>
      <polygon class="cls-6" points="384.78 187.4 370.68 193.17 374.02 187.4 370.68 181.64 384.78 187.4"/>
    </g>
  </g>
</svg>